#!OML:ASF F:\VICON\USERDATA\INSTALL\rory3\rory3.ASF
:FULLY-SPECIFIED
:DEGREES
558
root 0.214135 16.8338 38.3501 731.002 52.1286 -6.04606
lowerback -3.49715 3.29518 -2.89867
upperback -5.771 4.43293 -3.59532
thorax -3.9385 2.3012 -2.09989
lowerneck -22.0844 -1.88186 -10.2826
upperneck 29.0743 -0.806754 6.89634
head 13.6121 -0.439785 4.39812
rclavicle -3.81667e-014 -2.06736e-014
rhumerus -10.9502 2.37507 -71.6266
rradius 45.3095
rwrist 12.6719
rhand -32.6758 -418.013
rfingers 7.12502
rthumb 174.099 452.089
lclavicle -3.81667e-014 -2.06736e-014
lhumerus -39.1276 5.01964 47.1756
lradius 40.4499
lwrist 28.3651
lhand -48.0004 -752.145
lfingers 7.12502
lthumb -20.6688 -3.22546
rfemur -30.8312 1.95696 25.9767
rtibia 42.3742
rfoot -16.5509 -10.55
rtoes -12.2849
lfemur -40.0666 9.50761 -10.4678
ltibia 49.8698
lfoot -21.8788 24.3193
ltoes 3.3981
559
root 0.221731 16.8441 38.4399 731.289 50.9465 -5.70712
lowerback -3.75093 3.40889 -2.62615
upperback -5.86162 4.59383 -3.4835
thorax -3.87532 2.37371 -2.12126
lowerneck -21.3819 -2.1511 -10.0119
upperneck 28.7911 -1.26168 6.53785
head 13.3925 -0.659469 4.10484
rclavicle -7.38485e-014 -2.22639e-014
rhumerus -11.8201 2.66726 -72.8734
rradius 44.7178
rwrist 12.862
rhand -32.5743 -418.062
rfingers 7.12502
rthumb 174.197 452.038
lclavicle -7.38485e-014 -2.22639e-014
lhumerus -39.8378 4.95862 47.4521
lradius 40.4178
lwrist 28.1878
lhand -47.729 -752.427
lfingers 7.12502
lthumb -20.408 -3.47905
rfemur -30.6958 2.18329 25.9363
rtibia 42.4571
rfoot -15.9914 -10.7032
rtoes -17.8464
lfemur -39.8047 8.44542 -10.9405
ltibia 49.8859
lfoot -21.7653 24.0773
ltoes 1.97469
560
root 0.231141 16.8573 38.5286 731.513 49.7872 -5.46506
lowerback -3.94045 3.18161 -2.30103
upperback -5.84298 4.29954 -3.08532
thorax -3.75805 2.21956 -1.87696
lowerneck -22.1984 -2.29361 -10.9692
upperneck 29.5106 -1.15076 6.92392
head 13.8734 -0.676843 4.48917
rclavicle 7.97127e-014 -2.06736e-014
rhumerus -12.0445 3.83367 -74.2207
rradius 43.9319
rwrist 13.2819
rhand -32.8017 -417.907
rfingers 7.12502
rthumb 173.977 452.198
lclavicle 7.97127e-014 -2.06736e-014
lhumerus -41.2471 6.04878 47.4494
lradius 40.5796
lwrist 28.1721
lhand -47.6535 -752.51
lfingers 7.12502
lthumb -20.3355 -3.55458
rfemur -30.5784 2.30902 25.9519
rtibia 42.6066
rfoot -15.9586 -10.3088
rtoes -20.4076
lfemur -39.4063 6.69841 -10.9978
ltibia 49.8067
lfoot -24.2672 21.8387
ltoes 7.96268
561
root 0.243387 16.8646 38.6257 732.224 48.321 -4.5285
lowerback -4.20641 3.39989 -2.5023
upperback -5.92202 4.60274 -3.12292
thorax -3.70142 2.37952 -1.78856
lowerneck -22.482 -2.86714 -12.5192
upperneck 30.2004 -1.80426 8.25746
head 14.3501 -0.966454 5.24141
rclavicle 4.74101e-014 2.38542e-014
rhumerus -12.9066 4.23109 -75.1416
rradius 43.1934
rwrist 13.4634
rhand -32.9662 -417.475
rfingers 7.12502
rthumb 173.818 452.635
lclavicle 4.74101e-014 2.38542e-014
lhumerus -41.8644 5.95514 47.8639
lradius 40.7259
lwrist 28.7083
lhand -47.8531 -752.397
lfingers 7.12502
lthumb -20.5272 -3.46227
rfemur -30.3804 2.53581 25.4068
rtibia 42.746
rfoot -16.1005 -9.41874
rtoes -21.0175
lfemur -39.0166 5.55691 -11.8879
ltibia 49.7054
lfoot -24.9227 21.012
ltoes 8.50911
562
root 0.254675 16.8922 38.7343 732.729 46.8109 -3.82829
lowerback -4.55337 3.75988 -2.76562
upperback -6.0699 5.09921 -3.23652
thorax -3.67142 2.63867 -1.7386
lowerneck -21.222 -3.11754 -11.4295
upperneck 29.7118 -2.47811 7.45405
head 13.9261 -1.24446 4.5523
rclavicle -4.96962e-017 -6.36111e-015
rhumerus -14.3532 3.60894 -76.2877
rradius 42.6845
rwrist 14.3136
rhand -32.9076 -417.085
rfingers 7.12502
rthumb 173.875 453.023
lclavicle -4.96962e-017 -6.36111e-015
lhumerus -42.1443 5.36914 48.3664
lradius 40.6219
lwrist 28.9904
lhand -47.5106 -752.867
lfingers 7.12502
lthumb -20.1981 -3.89663
rfemur -29.9586 2.63762 25.1529
rtibia 42.8076
rfoot -16.1664 -8.48156
rtoes -22.0691
lfemur -38.5916 4.85371 -12.7745
ltibia 49.5382
lfoot -24.5316 20.8816
ltoes 5.74695
563
root 0.258405 16.8995 38.8274 732.408 46.0474 -4.32084
lowerback -4.67175 3.83431 -2.11176
upperback -6.21501 5.19217 -3.0023
thorax -3.71769 2.66508 -1.85417
lowerneck -18.3167 -3.04125 -6.86886
upperneck 26.8849 -2.66238 2.49435
head 12.025 -1.49179 1.70061
rclavicle -4.83544e-014 -4.77083e-015
rhumerus -15.4774 3.10719 -77.3837
rradius 42.0975
rwrist 15.1331
rhand -32.83 -416.908
rfingers 7.12502
rthumb 173.95 453.199
lclavicle -4.83544e-014 -4.77083e-015
lhumerus -42.6782 5.22197 48.7668
lradius 40.5132
lwrist 28.9832
lhand -47.013 -753.21
lfingers 7.12502
lthumb -19.7198 -4.19063
rfemur -29.7659 3.03041 25.659
rtibia 42.6905
rfoot -16.0572 -7.66232
rtoes -21.7142
lfemur -38.6714 3.93754 -12.6647
ltibia 49.5122
lfoot -24.0207 20.2958
ltoes 4.12853
564
root 0.275933 16.9124 38.9318 732.409 44.7877 -4.10323
lowerback -4.84584 3.93515 -2.03256
upperback -6.21642 5.33288 -2.80636
thorax -3.63088 2.73553 -1.68045
lowerneck -16.0238 -3.03981 -2.91521
upperneck 24.3701 -2.7702 -1.89316
head 10.4827 -1.69923 -0.548749
rclavicle -4.35835e-014 -5.1684e-014
rhumerus -16.3346 3.07968 -78.3329
rradius 41.4192
rwrist 15.4432
rhand -32.9282 -416.592
rfingers 7.12502
rthumb 173.855 453.517
lclavicle -4.35835e-014 -5.1684e-014
lhumerus -43.4344 5.74054 48.9504
lradius 40.3932
lwrist 28.5206
lhand -46.7476 -753.514
lfingers 7.12502
lthumb -19.4647 -4.46863
rfemur -29.5071 4.01396 25.3125
rtibia 42.4902
rfoot -16.3411 -5.79164
rtoes -17.4247
lfemur -38.407 3.13766 -13.1054
ltibia 49.4697
lfoot -24.227 19.4631
ltoes 5.04309
565
root 0.290661 16.9301 39.0372 732.413 43.4777 -3.88507
lowerback -4.94306 4.03298 -1.94715
upperback -6.25258 5.46585 -2.61613
thorax -3.62321 2.80203 -1.52421
lowerneck -13.8485 -3.31559 0.384742
upperneck 21.6851 -3.19472 -5.74912
head 8.97231 -2.02888 -2.38867
rclavicle -9.12919e-014 -3.4191e-014
rhumerus -17.0158 3.58361 -79.1402
rradius 40.6161
rwrist 15.1706
rhand -33.1887 -416.492
rfingers 7.12502
rthumb 173.604 453.625
lclavicle -9.12919e-014 -3.4191e-014
lhumerus -44.2474 6.27898 49.046
lradius 40.3186
lwrist 27.9142
lhand -46.5651 -754.246
lfingers 7.12502
lthumb -19.2891 -5.18243
rfemur -29.0133 4.55976 25.2321
rtibia 42.3503
rfoot -16.3381 -5.07588
rtoes -16.7628
lfemur -38.1823 2.25391 -13.5418
ltibia 49.4467
lfoot -24.3913 18.8953
ltoes 5.68823
566
root 0.300907 16.9266 39.1345 732.702 42.3464 -3.59317
lowerback -5.12303 4.05955 -1.7514
upperback -6.35728 5.50256 -2.52866
thorax -3.62188 2.81538 -1.53232
lowerneck -19.8661 -4.07781 -11.2556
upperneck 30.2257 -3.96279 6.94225
head 14.0309 -1.96548 4.05846
rclavicle -7.1314e-015 -2.38542e-015
rhumerus -18.0459 3.68655 -80.2926
rradius 40.063
rwrist 15.4478
rhand -33.633 -416.939
rfingers 7.12502
rthumb 173.175 453.191
lclavicle -7.1314e-015 -2.38542e-015
lhumerus -45.0262 6.48206 49.2272
lradius 40.4586
lwrist 27.7579
lhand -46.4199 -754.486
lfingers 7.12502
lthumb -19.1495 -5.4091
rfemur -28.8951 4.90238 25.1142
rtibia 42.3541
rfoot -16.2573 -4.48284
rtoes -17.2205
lfemur -38.2094 1.42948 -14.1395
ltibia 49.349
lfoot -23.8741 18.9304
ltoes 3.17064
567
root 0.30966 16.9196 39.2334 733.169 41.3307 -3.18683
lowerback -5.37704 4.10908 -1.63183
upperback -6.53289 5.57178 -2.56783
thorax -3.64842 2.84675 -1.62587
lowerneck -19.7302 -4.40107 -12.3844
upperneck 30.5536 -4.33928 7.77393
head 14.2513 -2.15541 4.54753
rclavicle -1.64991e-014 2.06736e-014
rhumerus -19.1374 3.76865 -81.3388
rradius 39.5434
rwrist 15.147
rhand -33.9096 -417.005
rfingers 7.12502
rthumb 172.908 453.134
lclavicle -1.64991e-014 2.06736e-014
lhumerus -45.6311 6.72297 49.3092
lradius 40.4805
lwrist 27.6137
lhand -46.1022 -754.641
lfingers 7.12502
lthumb -18.844 -5.53412
rfemur -28.9789 5.09668 24.9214
rtibia 42.5274
rfoot -16.3453 -3.83345
rtoes -17.3801
lfemur -38.3912 0.570841 -14.7899
ltibia 49.2073
lfoot -23.508 18.6236
ltoes 0.929778
568
root 0.318489 16.9205 39.3387 733.252 40.3554 -3.14159
lowerback -5.53471 4.19097 -1.37226
upperback -6.66913 5.67889 -2.48659
thorax -3.68486 2.89265 -1.67706
lowerneck -19.6078 -4.66427 -13.3528
upperneck 30.9466 -4.67473 8.5604
head 14.5036 -2.31789 5.00844
rclavicle -1.08574e-013 -3.18055e-015
rhumerus -20.231 3.65941 -82.1878
rradius 39.0686
rwrist 14.4962
rhand -33.8516 -416.407
rfingers 7.12502
rthumb 172.964 453.73
lclavicle -1.08574e-013 -3.18055e-015
lhumerus -46.2313 7.2067 49.3334
lradius 40.4657
lwrist 27.4495
lhand -45.7235 -754.943
lfingers 7.12502
lthumb -18.4798 -5.8012
rfemur -28.8676 5.56675 25.0251
rtibia 42.7392
rfoot -16.4181 -3.58537
rtoes -18.1919
lfemur -38.5446 -0.147431 -15.0795
ltibia 49.1111
lfoot -23.4603 17.7767
ltoes 0.470207
569
root 0.327004 16.9238 39.4431 733.236 39.2907 -3.09364
lowerback -5.62223 4.22884 -1.18151
upperback -6.7009 5.72767 -2.31457
thorax -3.66724 2.91243 -1.59832
lowerneck -19.7977 -4.85395 -13.9783
upperneck 31.4152 -4.83616 8.90426
head 14.8191 -2.42436 5.26219
rclavicle 5.90608e-014 -3.97569e-015
rhumerus -21.1559 3.99104 -83.0146
rradius 38.539
rwrist 14.0484
rhand -33.7131 -416.048
rfingers 7.12502
rthumb 173.097 454.085
lclavicle 5.90608e-014 -3.97569e-015
lhumerus -47.1289 7.55246 49.4798
lradius 40.7841
lwrist 27.7206
lhand -45.4548 -755.153
lfingers 7.12502
lthumb -18.2212 -5.98682
rfemur -28.5901 6.14306 25.1075
rtibia 42.8877
rfoot -16.3657 -3.38993
rtoes -19.1595
lfemur -38.6134 -0.407804 -15.4671
ltibia 49.0399
lfoot -23.3243 16.7608
ltoes 0.228382
570
root 0.336393 16.9143 39.5456 733.412 38.1397 -2.71543
lowerback -5.75226 4.29392 -1.2838
upperback -6.68101 5.82025 -2.21124
thorax -3.59359 2.96467 -1.42189
lowerneck -19.8549 -4.94064 -13.88
upperneck 31.724 -4.93323 8.69726
head 14.9806 -2.48855 5.15335
rclavicle 4.98367e-014 7.95139e-016
rhumerus -22.0095 4.70084 -83.7695
rradius 37.8818
rwrist 13.9373
rhand -33.9045 -415.484
rfingers 7.12502
rthumb 172.913 454.655
lclavicle 4.98367e-014 7.95139e-016
lhumerus -47.9784 7.6868 49.797
lradius 41.1605
lwrist 28.0808
lhand -45.4215 -755.316
lfingers 7.12502
lthumb -18.1892 -6.14647
rfemur -28.31 6.71784 24.8602
rtibia 42.9898
rfoot -16.2699 -2.79789
rtoes -18.4306
lfemur -38.6544 -1.32544 -16.0141
ltibia 49.0477
lfoot -23.3612 16.3483
ltoes 0.502411
